PathFileType	4	(X/Y/Z)	C:\Users\Basilio\Documents\Thesis Gigler\squatting_fais\c3dfiles\047\SLS_pre_front5\markers_experimental.trc
DataRate	CameraRate	NumFrames	NumMarkers	Units	OrigDataRate	OrigDataStartFrame	OrigNumFrames
200.000000	200.000000	4	60	mm	200.000000	739	1183
Frame#	Time	FHD			LBHD			RBHD			C7			T10			CLAV			LSHO			LUUPA			LMUPA			LDUPA			LLEP			LMEP			LRAD			LUL			LRFIN			RSHO			RUPA1			RMUPA			RDUPA			RLEP			RMEP			RRAD			RUL			RUFIN			LASI			RASI			USACR			LSACR			RSACR			LTHI1			LTHI2			LTHI3			LTHI4			LLFC			LMFC			LTIB1			LTIB2			LTIB3			LTIB4			LLMAL			LMMAL			LMT1			LMT2			LMT5			RTHI			RTHI2			RTHI3			RTHI4			RLFC			RMFC			RTIB1			RTIB2			RTIB3			RTIB4			RLMAL			RMMAL			RHEE			RMT1			RMT2			RMT5			
		X1	Y1	Z1	X2	Y2	Z2	X3	Y3	Z3	X4	Y4	Z4	X5	Y5	Z5	X6	Y6	Z6	X7	Y7	Z7	X8	Y8	Z8	X9	Y9	Z9	X10	Y10	Z10	X11	Y11	Z11	X12	Y12	Z12	X13	Y13	Z13	X14	Y14	Z14	X15	Y15	Z15	X16	Y16	Z16	X17	Y17	Z17	X18	Y18	Z18	X19	Y19	Z19	X20	Y20	Z20	X21	Y21	Z21	X22	Y22	Z22	X23	Y23	Z23	X24	Y24	Z24	X25	Y25	Z25	X26	Y26	Z26	X27	Y27	Z27	X28	Y28	Z28	X29	Y29	Z29	X30	Y30	Z30	X31	Y31	Z31	X32	Y32	Z32	X33	Y33	Z33	X34	Y34	Z34	X35	Y35	Z35	X36	Y36	Z36	X37	Y37	Z37	X38	Y38	Z38	X39	Y39	Z39	X40	Y40	Z40	X41	Y41	Z41	X42	Y42	Z42	X43	Y43	Z43	X44	Y44	Z44	X45	Y45	Z45	X46	Y46	Z46	X47	Y47	Z47	X48	Y48	Z48	X49	Y49	Z49	X50	Y50	Z50	X51	Y51	Z51	X52	Y52	Z52	X53	Y53	Z53	X54	Y54	Z54	X55	Y55	Z55	X56	Y56	Z56	X57	Y57	Z57	X58	Y58	Z58	X59	Y59	Z59	X60	Y60	Z60	

740	3.695	-93.67959594726564	1505.681518554688	-1103.876586914063	-271.7519531250001	1474.420532226563	-1132.476196289063	-252.0790252685547	1480.475952148438	-985.0007934570315	-314.4250183105469	1314.851318359375	-1055.290405273438	-421.6709899902345	1038.081420898438	-1006.383544921875	-177.7812042236328	1229.615356445313	-1078.605590820313	-252.4372558593751	1281.214477539063	-1216.174072265625	-177.3545684814453	1207.6171875	-1349.603149414063	-146.488998413086	1246.916870117188	-1344.621826171875	-114.0983657836914	1211.724487304688	-1378.189819335938	-53.26515960693361	1228.682006835938	-1399.772705078125	-23.55673599243164	1168.244140625	-1355.792846679688	219.5253143310547	1223.48388671875	-1408.873657226563	198.2058715820313	1241.991333007813	-1482.427490234375	290.9186096191407	1252.437377929688	-1435.973754882813	-203.0186004638672	1298.337890625	-936.6157836914065	-79.05461883544923	1234.100708007813	-823.2119750976565	-49.46530914306642	1264.559814453125	-848.9146118164065	-10.02625465393067	1225.546142578125	-824.6441040039065	58.08696365356447	1232.960083007813	-834.1568603515627	58.91987991333009	1161.996215820313	-873.725280761719	314.0579833984376	1199.024047851563	-899.7803344726565	315.1303100585938	1224.223266601563	-832.4138793945315	397.7686462402345	1219.803466796875	-897.8566894531252	-319.3222961425782	780.543151855469	-1088.151977539063	-299.2734985351563	818.6099243164065	-865.1399536132815	-480.4756774902345	902.2174072265627	-976.7731933593752	-496.9417114257814	871.2620849609377	-1000.931701660156	-489.4710693359376	874.4619140625002	-944.1993408203127	-346.9212951660157	657.6990966796876	-1160.117065429688	-266.8973388671876	630.8420410156251	-1167.101928710938	-234.3191223144532	665.6796875000001	-1155.690063476563	-247.6233978271485	573.6281127929689	-1170.553833007813	-145.0529937744141	445.7095947265626	-1147.4296875	-98.70595550537112	459.8668823242189	-1025.625122070313	-167.4708099365235	291.1086425781251	-1029.765625	-196.2195892333985	241.9375000000001	-1094.673583984375	-183.0782318115235	238.9334869384766	-1049.197509765625	-234.5704040527344	185.2613372802735	-1012.284484863281	-323.6870422363282	114.3134384155274	-1053.636840820313	-298.7679138183594	138.4306793212891	-967.1151123046877	-190.1200714111328	62.16964721679689	-978.4549560546877	-188.1250457763672	58.41984176635744	-1023.072631835938	-237.9804229736329	43.5626335144043	-1067.450805664063	-300.7690429687501	668.5700073242189	-760.0376586914064	-235.3747253417969	657.8817749023439	-770.384704589844	-215.7044677734376	680.2280273437501	-782.1632080078127	-196.562484741211	583.9658813476564	-773.5024414062502	-86.49025726318361	490.8820800781251	-802.7421875000002	-78.84255981445314	492.9163513183595	-925.7293701171877	21.97126770019532	418.1906738281251	-831.9486083984377	36.31499099731446	319.2533874511719	-785.7270507812502	65.92624664306642	345.8879089355469	-809.8762817382815	99.30808258056643	313.7400512695313	-845.4311523437502	154.5637969970703	163.8131866455078	-811.514587402344	153.4139862060547	181.5830230712891	-902.0581054687502	117.2555007934571	100.6869049072266	-853.2627563476565	302.8791198730469	185.2254028320313	-908.823181152344	308.8765258789063	198.2489013671876	-866.3059082031252	289.7716674804688	159.1216583251953	-802.4661865234377	
741	3.7	-94.57238769531251	1507.580444335938	-1103.64892578125	-272.4249267578126	1476.296997070313	-1132.677368164063	-252.5475769042969	1482.250854492188	-985.407653808594	-314.7516479492188	1316.43359375	-1055.343627929688	-421.3236389160157	1039.631713867188	-1006.337768554688	-178.7201232910157	1231.990966796875	-1078.62939453125	-252.4232788085938	1283.031127929688	-1216.495849609375	-177.9141387939453	1209.5419921875	-1349.835571289063	-147.0411376953125	1248.883544921875	-1344.808227539063	-114.508903503418	1213.787353515625	-1378.362915039063	-53.93737030029298	1230.690307617188	-1400.25341796875	-23.50900840759278	1169.967407226563	-1355.602661132813	219.1763153076172	1225.992553710938	-1409.3291015625	197.634506225586	1244.52294921875	-1482.843383789063	290.4925842285157	1255.049926757813	-1436.689575195313	-203.3670806884766	1300.468505859375	-936.647155761719	-79.21693420410158	1235.9755859375	-823.3469238281252	-49.62703704833986	1266.48876953125	-848.882751464844	-10.34219646453858	1227.540893554688	-824.2251586914065	57.71692276000978	1234.837646484375	-834.109069824219	58.58699035644533	1164.04248046875	-873.6290283203127	313.9107360839844	1201.412353515625	-899.7647705078127	314.9442749023438	1226.610107421875	-832.3001098632815	398.0755310058595	1222.015258789063	-898.057312011719	-319.0478210449219	782.2010498046877	-1088.126831054688	-298.7956237792969	820.028991699219	-865.066589355469	-479.995086669922	903.7301025390627	-976.7333984375002	-496.633514404297	872.8770141601565	-1000.816345214844	-488.8316955566407	876.0729980468752	-944.0962524414065	-347.0000915527344	659.1268920898439	-1160.10400390625	-266.9896240234376	631.7897949218751	-1167.209838867188	-234.5304107666016	666.5598754882814	-1155.74267578125	-248.0460968017579	574.7146606445314	-1170.671630859375	-145.7560577392578	446.1170654296876	-1147.572631835938	-99.244743347168	460.4143066406251	-1025.891723632813	-167.8450622558594	291.1914367675782	-1029.986694335938	-196.6911926269532	242.4098815917969	-1095.101440429688	-183.6390686035157	239.0440826416016	-1049.340698242188	-234.693099975586	185.5147705078125	-1012.468017578125	-323.7648010253907	114.3448638916016	-1053.737426757813	-298.7085266113282	138.5545501708985	-967.2258911132815	-190.1099700927735	62.20882415771486	-978.5105590820315	-188.0861206054688	58.43383026123048	-1023.258483886719	-237.9897155761719	43.43244934082032	-1067.530517578125	-300.6293029785157	669.8865356445314	-759.9252319335939	-234.8599853515626	659.1094970703126	-769.605895996094	-215.5681915283204	681.4171752929689	-781.8809814453127	-196.4783325195313	585.3296508789064	-773.3721923828127	-86.64487457275392	491.657196044922	-802.6504516601565	-79.0322952270508	494.1303710937501	-925.8431396484377	21.58775711059571	418.9388122558595	-831.713317871094	36.10155487060548	320.1194152832032	-785.3257446289065	65.40715789794923	346.4931335449219	-809.7866210937502	98.9897384643555	314.4535522460938	-845.6870117187502	153.6182098388672	164.2757873535157	-810.8822021484377	152.0157012939453	181.189697265625	-901.608337402344	116.4427795410157	101.1545028686524	-853.1550903320315	302.2114257812501	185.2058410644532	-908.5593872070315	307.8767089843751	198.2784576416016	-865.6140747070315	289.1942443847657	159.2789611816407	-802.582946777344	
742	3.705	-95.01214599609376	1510.25146484375	-1104.147216796875	-273.1596984863282	1478.116577148438	-1132.815551757813	-253.3240661621094	1484.204467773438	-985.4949340820315	-315.0689697265626	1318.423950195313	-1055.493408203125	-421.1755371093751	1041.36865234375	-1006.262390136719	-178.9721221923828	1233.866943359375	-1078.48193359375	-252.9144592285157	1284.853271484375	-1216.55859375	-178.1209869384766	1211.375244140625	-1349.904174804688	-148.1358032226563	1250.76953125	-1344.519287109375	-115.1728286743164	1215.769409179688	-1378.57568359375	-54.24137496948244	1232.7099609375	-1400.5068359375	-24.7000961303711	1172.01708984375	-1356.378662109375	218.4984588623047	1228.467529296875	-1409.895751953125	196.7538146972657	1247.098022460938	-1483.34716796875	289.7234191894532	1257.860473632813	-1437.322509765625	-203.863021850586	1302.270385742188	-936.5310058593752	-79.50716400146486	1237.877685546875	-823.395690917969	-50.10084533691408	1268.518432617188	-848.7971191406252	-10.83740520477295	1229.785522460938	-823.9205322265627	57.63502883911134	1236.9111328125	-834.3565673828127	58.97085189819337	1166.040283203125	-875.3983154296877	313.5900268554688	1203.663452148438	-899.6934204101565	314.5905151367188	1228.644287109375	-832.364196777344	397.7739257812501	1224.163330078125	-897.7635498046877	-318.8280639648438	783.5617675781252	-1088.130126953125	-298.0364685058594	821.7590332031252	-865.203063964844	-479.6975708007814	905.429138183594	-976.6577758789065	-496.0568237304689	874.3830566406252	-1000.749755859375	-488.5023193359376	878.0366821289065	-944.010681152344	-346.9431457519532	660.5202026367189	-1160.139282226563	-267.1590881347657	632.9822387695314	-1167.330444335938	-234.5894927978516	667.7031860351564	-1155.933715820313	-248.3806610107422	575.7868041992189	-1170.7451171875	-146.7385711669922	446.6341247558595	-1147.798706054688	-99.80782318115237	460.7882690429689	-1026.318237304688	-168.0846405029297	291.8396606445313	-1030.521728515625	-196.9689636230469	242.8850097656251	-1095.434326171875	-183.9109649658203	239.3655242919922	-1049.76611328125	-234.7437744140626	185.7979431152344	-1012.713256835938	-323.5391845703126	114.2181701660157	-1053.851928710938	-298.6622009277344	138.6259155273438	-967.394714355469	-190.1425018310547	62.26792907714845	-978.6279907226565	-187.7798767089844	58.49237442016603	-1023.352416992188	-238.0196075439454	43.39279174804688	-1067.590209960938	-300.1473388671876	671.5640869140626	-760.1905517578126	-234.7471618652344	660.5346069335939	-769.3719482421877	-215.3683471679688	682.8603515625001	-781.923278808594	-196.3386535644532	586.6084594726564	-773.413024902344	-86.67240142822267	492.9712219238282	-802.5076293945315	-80.58446502685548	494.5671691894532	-925.479919433594	21.28440666198731	419.4315185546876	-830.9924316406252	35.51079177856446	320.9821777343751	-785.024597167969	65.05747222900392	346.9295959472657	-809.616149902344	98.28501129150393	315.1097106933594	-845.456237792969	153.2431640625	164.9206695556641	-811.043395996094	151.0913543701172	181.5889739990235	-901.2325439453127	115.2681655883789	101.8087921142578	-852.722351074219	301.2500000000001	185.4546661376953	-908.5010375976565	307.1788330078126	198.4558410644532	-865.6188964843752	288.1258850097657	159.3255920410157	-802.4533691406252	
743	3.71	-97.05771636962893	1511.499633789063	-1102.519897460938	-273.8494262695313	1479.9951171875	-1133.009887695313	-254.1998291015626	1486.185668945313	-985.6360473632815	-315.2979431152344	1320.218383789063	-1055.591430664063	-420.9602355957032	1042.827758789063	-1006.14892578125	-179.1439666748047	1236.031860351563	-1078.937377929688	-253.4288635253907	1286.773681640625	-1216.460083007813	-178.9457702636719	1213.554443359375	-1350.021240234375	-148.2620391845703	1252.923583984375	-1345.16015625	-115.6283493041992	1217.786376953125	-1378.801513671875	-54.8385353088379	1234.7939453125	-1400.858642578125	-24.61242485046387	1174.556762695313	-1356.504150390625	218.0993347167969	1231.004272460938	-1410.403930664063	196.3751831054688	1249.496459960938	-1483.9599609375	289.4504394531251	1260.552856445313	-1437.97216796875	-204.0950927734376	1304.493408203125	-936.5649414062502	-79.96583557128908	1239.962036132813	-823.1459960937502	-50.38998794555665	1270.516967773438	-848.7082519531252	-10.79537105560303	1231.6181640625	-824.5823364257815	57.38518524169923	1239.013671875	-834.2589111328127	58.74431228637697	1168.15625	-875.2813110351565	313.7259521484376	1206.009643554688	-899.9212646484377	314.1975402832032	1230.867797851563	-832.1204223632815	397.5496215820314	1226.841918945313	-897.979675292969	-318.5698852539063	785.2979125976565	-1088.190551757813	-297.4407348632813	823.1914062500002	-865.5698242187502	-479.4312438964845	907.1911621093752	-976.6185302734377	-495.7622375488282	876.2659912109377	-1000.617797851563	-488.2044372558595	879.480651855469	-943.9043579101565	-347.0787963867188	661.7979736328126	-1160.139404296875	-267.3556823730469	634.0905151367189	-1167.463623046875	-234.406234741211	668.6430664062501	-1156.232421875	-248.6721343994141	576.6652832031251	-1170.923095703125	-147.7260437011719	447.2517700195314	-1147.894165039063	-100.2417373657227	461.4297485351564	-1026.617797851563	-168.4745635986328	292.2437744140626	-1030.192138671875	-197.4042510986329	243.1971893310547	-1095.776000976563	-184.1768035888672	239.7848052978516	-1050.147583007813	-234.7995605468751	186.1335906982422	-1012.99658203125	-323.6562500000001	114.2329483032227	-1053.967407226563	-298.6553955078126	138.6929931640625	-967.499450683594	-190.2460632324219	62.28473281860353	-978.694274902344	-187.8657989501953	58.40390014648439	-1023.420593261719	-238.0468750000001	43.34908676147462	-1067.571655273438	-299.8015136718751	672.9620361328126	-760.0874023437501	-234.4590301513672	661.7769165039064	-769.6054687500002	-214.8357086181641	684.0587768554689	-781.953796386719	-196.1711425781251	587.6624755859376	-773.4967041015627	-86.7040252685547	493.9689331054689	-802.5241699218752	-80.55693817138673	495.408660888672	-925.2908935546877	21.31790924072266	420.2285766601564	-831.2091064453127	34.63537216186524	321.5208129882813	-783.8031005859377	64.50241088867189	347.9433288574219	-809.4539794921877	97.36782073974612	315.7162780761719	-845.1876220703127	151.990951538086	165.5479125976563	-810.6646118164065	150.3067169189453	182.0101165771485	-900.9690551757815	114.7358856201172	101.8975906372071	-852.8798828125002	300.2227478027344	185.5421447753907	-908.079284667969	306.5712585449219	198.5110321044922	-865.6575927734377	287.3320922851563	159.3965759277344	-802.1104736328127	
